<?xml version="1.0" standalone="no"?>
<!DOCTYPE svg PUBLIC "-//W3C//DTD SVG 20010904//EN"
 "http://www.w3.org/TR/2001/REC-SVG-20010904/DTD/svg10.dtd">
<svg version="1.0" xmlns="http://www.w3.org/2000/svg"
 width="300.000000pt" height="300.000000pt" viewBox="0 0 300.000000 300.000000"
 preserveAspectRatio="xMidYMid meet">

<g transform="translate(0.000000,300.000000) scale(0.100000,-0.100000)"
fill="#000000" stroke="none">
<path d="M0 1501 l0 -1501 993 0 c547 0 997 3 1001 7 11 12 49 12 83 0 27 -9
35 -8 53 8 11 10 20 24 20 32 0 7 5 13 11 13 7 0 10 -12 7 -30 l-5 -30 419 0
418 0 0 1500 0 1500 -505 0 c-340 0 -505 -3 -505 -10 0 -6 6 -25 14 -43 8 -21
12 -53 8 -87 -3 -38 -2 -51 7 -46 17 11 26 -24 12 -45 -6 -11 -8 -31 -5 -47 4
-18 3 -24 -3 -17 -13 13 -33 95 -33 135 0 17 -6 60 -12 95 l-13 65 -905 -1
c-498 -1 -894 -4 -880 -8 24 -7 24 -7 3 -13 -12 -3 -25 -2 -31 4 -5 5 -41 12
-80 15 l-72 6 0 -1502z m2177 1117 c-3 -8 -6 -5 -6 6 -1 11 2 17 5 13 3 -3 4
-12 1 -19z m216 -438 c-3 -12 -8 -19 -11 -16 -5 6 5 36 12 36 2 0 2 -9 -1 -20z
m77 -115 c0 -25 -15 -24 -16 1 -1 13 2 21 7 18 5 -3 9 -11 9 -19z m450 -325
c0 -11 -2 -20 -4 -20 -2 0 -6 9 -9 20 -3 11 -1 20 4 20 5 0 9 -9 9 -20z m-63
-62 c-3 -8 -6 -5 -6 6 -1 11 2 17 5 13 3 -3 4 -12 1 -19z m-27 8 c0 -3 -4 -8
-10 -11 -5 -3 -10 -1 -10 4 0 6 5 11 10 11 6 0 10 -2 10 -4z m-333 -138 c-3
-8 -6 -5 -6 6 -1 11 2 17 5 13 3 -3 4 -12 1 -19z m13 -54 c0 -8 -4 -14 -10
-14 -5 0 -10 9 -10 21 0 11 5 17 10 14 6 -3 10 -13 10 -21z m40 -24 c0 -5 -4
-10 -10 -10 -5 0 -10 5 -10 10 0 6 5 10 10 10 6 0 10 -4 10 -10z m-320 -136
c0 -8 -4 -12 -10 -9 -5 3 -10 13 -10 21 0 8 5 12 10 9 6 -3 10 -13 10 -21z
m29 -219 c0 -5 -4 -3 -9 5 -5 8 -9 22 -9 30 0 16 17 -16 18 -35z m18 -137 c-3
-7 -5 -2 -5 12 0 14 2 19 5 13 2 -7 2 -19 0 -25z m-1237 -31 c-9 -7 -14 -21
-12 -31 4 -18 3 -19 -13 -3 -9 9 -21 17 -26 17 -14 0 -11 -67 4 -74 10 -5 10
-7 0 -12 -7 -3 -13 -19 -13 -36 0 -24 -3 -28 -18 -24 -24 8 -57 -28 -70 -74
-6 -19 -11 -28 -11 -20 -1 13 -2 13 -12 0 -8 -11 -9 -7 -6 20 3 24 -3 51 -19
84 -29 60 -30 76 -6 76 10 0 27 7 38 15 10 8 27 15 36 15 9 0 24 7 33 16 16
16 79 43 100 43 6 0 3 -5 -5 -12z m1276 -19 c4 -13 7 -29 6 -35 -2 -7 3 -13
10 -13 10 0 12 -16 10 -60 -3 -39 0 -60 7 -60 6 0 11 -4 11 -9 0 -14 -43 -1
-57 17 -15 19 -17 72 -3 72 6 0 10 9 10 21 0 11 -4 18 -9 15 -11 -7 -21 17
-21 50 0 31 26 32 36 2z m-1319 -30 c-3 -8 -6 -5 -6 6 -1 11 2 17 5 13 3 -3 4
-12 1 -19z m-191 -104 c16 -38 19 -181 4 -204 -5 -8 -10 -10 -10 -4 0 7 -11 9
-25 6 -14 -2 -25 -9 -25 -14 0 -6 7 -8 15 -4 8 3 15 1 15 -4 0 -6 -5 -10 -11
-10 -6 0 -8 -9 -4 -20 4 -11 2 -20 -4 -20 -6 0 -11 7 -11 15 0 8 -4 15 -10 15
-9 0 -14 -20 -11 -45 1 -16 -51 -35 -76 -29 -18 5 -25 1 -33 -20 -7 -19 -17
-26 -35 -26 -14 0 -25 -4 -25 -10 0 -5 -7 -7 -15 -4 -9 4 -15 0 -15 -9 0 -8 6
-18 13 -20 6 -3 2 -6 -10 -6 -13 -1 -23 -5 -23 -10 0 -5 -7 -12 -16 -15 -14
-5 -15 -4 -5 8 6 8 21 46 32 86 26 96 100 246 144 293 19 21 35 41 35 44 0 11
35 32 53 33 9 0 17 5 17 11 0 19 22 -3 36 -37z m-151 25 c-4 -6 -10 -8 -13 -5
-3 3 -11 1 -19 -5 -13 -11 -19 2 -6 14 11 11 45 8 38 -4z m1799 -21 c-8 -27
-12 -33 -19 -27 -7 8 7 49 17 49 5 0 6 -10 2 -22z m-1819 -38 c-3 -5 -12 -10
-18 -10 -7 0 -6 4 3 10 19 12 23 12 15 0z m1815 -25 c0 -14 -4 -25 -10 -25 -5
0 -10 11 -10 25 0 14 5 25 10 25 6 0 10 -11 10 -25z m-102 -35 c13 -14 17 -30
14 -46 -4 -23 -2 -25 17 -19 19 6 21 3 21 -32 -1 -21 -7 -56 -15 -78 -17 -47
-19 -65 -5 -65 6 0 10 11 10 25 0 31 20 33 21 3 1 -17 2 -19 6 -5 2 9 9 17 14
17 5 0 8 3 6 8 -1 4 8 17 21 30 20 20 22 20 22 4 0 -10 -6 -27 -14 -38 -8 -10
-13 -28 -10 -40 5 -18 1 -20 -55 -20 l-60 0 -6 61 c-3 33 -10 84 -16 114 -17
101 -9 122 29 81z m109 -82 c-3 -8 -6 -5 -6 6 -1 11 2 17 5 13 3 -3 4 -12 1
-19z m-17 -12 c0 -3 -4 -8 -10 -11 -5 -3 -10 -1 -10 4 0 6 5 11 10 11 6 0 10
-2 10 -4z m70 -106 c0 -5 -5 -10 -11 -10 -5 0 -7 5 -4 10 3 6 8 10 11 10 2 0
4 -4 4 -10z m68 -43 c6 3 12 0 12 -5 0 -14 -21 -20 -46 -13 -18 5 -20 10 -12
31 9 25 9 25 21 4 7 -12 18 -19 25 -17z m-68 -1 c0 -3 -4 -8 -10 -11 -5 -3
-10 -1 -10 4 0 6 5 11 10 11 6 0 10 -2 10 -4z m-171 -47 c-13 -26 -19 -24 -19
6 0 17 4 23 15 19 11 -5 12 -11 4 -25z m-83 -81 c-9 -5 -16 -17 -16 -27 0 -11
-13 -33 -30 -51 -16 -18 -30 -28 -30 -22 0 6 -2 17 -5 24 -3 8 14 35 42 63 30
31 48 44 51 35 3 -7 -3 -17 -12 -22z"/>
<path d="M2363 594 c-15 -15 -17 -44 -4 -44 7 0 23 51 18 56 -1 1 -8 -4 -14
-12z"/>
</g>
</svg>
